<?xml version="1.0" encoding="us-ascii" standalone="no"?><svg xmlns="http://www.w3.org/2000/svg" xmlns:xlink="http://www.w3.org/1999/xlink" contentStyleType="text/css" height="541px" preserveAspectRatio="none" style="width:282px;height:541px;background:#FFFFFF;" version="1.1" viewBox="0 0 282 541" width="282px" zoomAndPan="magnify"><defs/><g><!--class Punto--><g id="elem_Punto"><rect codeLine="15" fill="#F1F1F1" height="188.875" id="Punto" rx="2.5" ry="2.5" style="stroke:#181818;stroke-width:0.5;" width="140" x="71" y="7"/><ellipse cx="118.25" cy="23" fill="#ADD1B2" rx="11" ry="11" style="stroke:#181818;stroke-width:1.0;"/><path d="M121.0156,18.875 Q121.1719,18.6563 121.3594,18.5469 Q121.5469,18.4375 121.7656,18.4375 Q122.1406,18.4375 122.375,18.7031 Q122.6094,18.9531 122.6094,19.5625 L122.6094,21.0156 Q122.6094,21.625 122.375,21.8906 Q122.1406,22.1563 121.7656,22.1563 Q121.4219,22.1563 121.2188,21.9531 Q121.0156,21.7656 120.9063,21.25 Q120.8594,20.8906 120.6719,20.7031 Q120.3438,20.3281 119.7344,20.1094 Q119.125,19.8906 118.5,19.8906 Q117.7344,19.8906 117.0938,20.2188 Q116.4688,20.5469 115.9688,21.2969 Q115.4844,22.0469 115.4844,23.0781 L115.4844,24.1719 Q115.4844,25.4063 116.375,26.2344 Q117.2656,27.0469 118.8594,27.0469 Q119.7969,27.0469 120.4531,26.7969 Q120.8438,26.6406 121.2656,26.2031 Q121.5313,25.9375 121.6719,25.8594 Q121.8281,25.7813 122.0313,25.7813 Q122.3594,25.7813 122.6094,26.0469 Q122.875,26.2969 122.875,26.6406 Q122.875,26.9844 122.5313,27.3906 Q122.0313,27.9688 121.2344,28.2969 Q120.1563,28.75 118.8594,28.75 Q117.3438,28.75 116.1406,28.125 Q115.1563,27.625 114.4688,26.5625 Q113.7813,25.4844 113.7813,24.2031 L113.7813,23.0469 Q113.7813,21.7188 114.3906,20.5781 Q115.0156,19.4219 116.1094,18.8125 Q117.2031,18.1875 118.4375,18.1875 Q119.1719,18.1875 119.8125,18.3594 Q120.4688,18.5156 121.0156,18.875 Z " fill="#000000"/><text fill="#000000" font-family="sans-serif" font-size="14" lengthAdjust="spacing" textLength="37" x="138.75" y="28.7285">Punto</text><line style="stroke:#181818;stroke-width:0.5;" x1="72" x2="210" y1="39" y2="39"/><rect fill="none" height="6" style="stroke:#C82930;stroke-width:1.0;" width="6" x="79" y="50.3047"/><text fill="#000000" font-family="sans-serif" font-size="14" lengthAdjust="spacing" textLength="29" x="91" y="57.5332">x: int</text><rect fill="none" height="6" style="stroke:#C82930;stroke-width:1.0;" width="6" x="79" y="67.9141"/><text fill="#000000" font-family="sans-serif" font-size="14" lengthAdjust="spacing" textLength="30" x="91" y="75.1426">y: int</text><line style="stroke:#181818;stroke-width:0.5;" x1="72" x2="210" y1="82.2188" y2="82.2188"/><ellipse cx="82" cy="96.5234" fill="#84BE84" rx="3" ry="3" style="stroke:#038048;stroke-width:1.0;"/><text fill="#000000" font-family="sans-serif" font-size="14" lengthAdjust="spacing" textLength="114" x="91" y="100.752">Punto(x: int, y: int)</text><ellipse cx="82" cy="114.1328" fill="#84BE84" rx="3" ry="3" style="stroke:#038048;stroke-width:1.0;"/><text fill="#000000" font-family="sans-serif" font-size="14" lengthAdjust="spacing" textLength="61" x="91" y="118.3613">getX(): int</text><ellipse cx="82" cy="131.7422" fill="#84BE84" rx="3" ry="3" style="stroke:#038048;stroke-width:1.0;"/><text fill="#000000" font-family="sans-serif" font-size="14" lengthAdjust="spacing" textLength="62" x="91" y="135.9707">getY(): int</text><ellipse cx="82" cy="149.3516" fill="#84BE84" rx="3" ry="3" style="stroke:#038048;stroke-width:1.0;"/><text fill="#000000" font-family="sans-serif" font-size="14" lengthAdjust="spacing" textLength="100" x="91" y="153.5801">setX(x: int): void</text><ellipse cx="82" cy="166.9609" fill="#84BE84" rx="3" ry="3" style="stroke:#038048;stroke-width:1.0;"/><text fill="#000000" font-family="sans-serif" font-size="14" lengthAdjust="spacing" textLength="102" x="91" y="171.1895">setY(y: int): void</text><ellipse cx="82" cy="184.5703" fill="#84BE84" rx="3" ry="3" style="stroke:#038048;stroke-width:1.0;"/><text fill="#000000" font-family="sans-serif" font-size="14" lengthAdjust="spacing" textLength="107" x="91" y="188.7988">modulo(): double</text></g><!--class PuntoTiempo--><g id="elem_PuntoTiempo"><rect codeLine="26" fill="#F1F1F1" height="118.4375" id="PuntoTiempo" rx="2.5" ry="2.5" style="stroke:#181818;stroke-width:0.5;" width="260" x="11" y="256"/><ellipse cx="94.75" cy="272" fill="#ADD1B2" rx="11" ry="11" style="stroke:#181818;stroke-width:1.0;"/><path d="M97.5156,267.875 Q97.6719,267.6563 97.8594,267.5469 Q98.0469,267.4375 98.2656,267.4375 Q98.6406,267.4375 98.875,267.7031 Q99.1094,267.9531 99.1094,268.5625 L99.1094,270.0156 Q99.1094,270.625 98.875,270.8906 Q98.6406,271.1563 98.2656,271.1563 Q97.9219,271.1563 97.7188,270.9531 Q97.5156,270.7656 97.4063,270.25 Q97.3594,269.8906 97.1719,269.7031 Q96.8438,269.3281 96.2344,269.1094 Q95.625,268.8906 95,268.8906 Q94.2344,268.8906 93.5938,269.2188 Q92.9688,269.5469 92.4688,270.2969 Q91.9844,271.0469 91.9844,272.0781 L91.9844,273.1719 Q91.9844,274.4063 92.875,275.2344 Q93.7656,276.0469 95.3594,276.0469 Q96.2969,276.0469 96.9531,275.7969 Q97.3438,275.6406 97.7656,275.2031 Q98.0313,274.9375 98.1719,274.8594 Q98.3281,274.7813 98.5313,274.7813 Q98.8594,274.7813 99.1094,275.0469 Q99.375,275.2969 99.375,275.6406 Q99.375,275.9844 99.0313,276.3906 Q98.5313,276.9688 97.7344,277.2969 Q96.6563,277.75 95.3594,277.75 Q93.8438,277.75 92.6406,277.125 Q91.6563,276.625 90.9688,275.5625 Q90.2813,274.4844 90.2813,273.2031 L90.2813,272.0469 Q90.2813,270.7188 90.8906,269.5781 Q91.5156,268.4219 92.6094,267.8125 Q93.7031,267.1875 94.9375,267.1875 Q95.6719,267.1875 96.3125,267.3594 Q96.9688,267.5156 97.5156,267.875 Z " fill="#000000"/><text fill="#000000" font-family="sans-serif" font-size="14" lengthAdjust="spacing" textLength="84" x="115.25" y="277.7285">PuntoTiempo</text><line style="stroke:#181818;stroke-width:0.5;" x1="12" x2="270" y1="288" y2="288"/><rect fill="none" height="6" style="stroke:#C82930;stroke-width:1.0;" width="6" x="19" y="299.3047"/><text fill="#000000" font-family="sans-serif" font-size="14" lengthAdjust="spacing" textLength="65" x="31" y="306.5332">tiempo: int</text><line style="stroke:#181818;stroke-width:0.5;" x1="12" x2="270" y1="313.6094" y2="313.6094"/><ellipse cx="22" cy="327.9141" fill="#84BE84" rx="3" ry="3" style="stroke:#038048;stroke-width:1.0;"/><text fill="#000000" font-family="sans-serif" font-size="14" lengthAdjust="spacing" textLength="234" x="31" y="332.1426">PuntoTiempo(x: int, y: int, tiempo: int)</text><ellipse cx="22" cy="345.5234" fill="#84BE84" rx="3" ry="3" style="stroke:#038048;stroke-width:1.0;"/><text fill="#000000" font-family="sans-serif" font-size="14" lengthAdjust="spacing" textLength="100" x="31" y="349.752">getTiempo(): int</text><ellipse cx="22" cy="363.1328" fill="#84BE84" rx="3" ry="3" style="stroke:#038048;stroke-width:1.0;"/><text fill="#000000" font-family="sans-serif" font-size="14" lengthAdjust="spacing" textLength="137" x="31" y="367.3613">setTiempo(t: int): void</text></g><!--class Punto3D--><g id="elem_Punto3D"><rect codeLine="33" fill="#F1F1F1" height="100.8281" id="Punto3D" rx="2.5" ry="2.5" style="stroke:#181818;stroke-width:0.5;" width="268" x="7" y="434"/><ellipse cx="109.25" cy="450" fill="#ADD1B2" rx="11" ry="11" style="stroke:#181818;stroke-width:1.0;"/><path d="M112.0156,445.875 Q112.1719,445.6563 112.3594,445.5469 Q112.5469,445.4375 112.7656,445.4375 Q113.1406,445.4375 113.375,445.7031 Q113.6094,445.9531 113.6094,446.5625 L113.6094,448.0156 Q113.6094,448.625 113.375,448.8906 Q113.1406,449.1563 112.7656,449.1563 Q112.4219,449.1563 112.2188,448.9531 Q112.0156,448.7656 111.9063,448.25 Q111.8594,447.8906 111.6719,447.7031 Q111.3438,447.3281 110.7344,447.1094 Q110.125,446.8906 109.5,446.8906 Q108.7344,446.8906 108.0938,447.2188 Q107.4688,447.5469 106.9688,448.2969 Q106.4844,449.0469 106.4844,450.0781 L106.4844,451.1719 Q106.4844,452.4063 107.375,453.2344 Q108.2656,454.0469 109.8594,454.0469 Q110.7969,454.0469 111.4531,453.7969 Q111.8438,453.6406 112.2656,453.2031 Q112.5313,452.9375 112.6719,452.8594 Q112.8281,452.7813 113.0313,452.7813 Q113.3594,452.7813 113.6094,453.0469 Q113.875,453.2969 113.875,453.6406 Q113.875,453.9844 113.5313,454.3906 Q113.0313,454.9688 112.2344,455.2969 Q111.1563,455.75 109.8594,455.75 Q108.3438,455.75 107.1406,455.125 Q106.1563,454.625 105.4688,453.5625 Q104.7813,452.4844 104.7813,451.2031 L104.7813,450.0469 Q104.7813,448.7188 105.3906,447.5781 Q106.0156,446.4219 107.1094,445.8125 Q108.2031,445.1875 109.4375,445.1875 Q110.1719,445.1875 110.8125,445.3594 Q111.4688,445.5156 112.0156,445.875 Z " fill="#000000"/><text fill="#000000" font-family="sans-serif" font-size="14" lengthAdjust="spacing" textLength="55" x="129.75" y="455.7285">Punto3D</text><line style="stroke:#181818;stroke-width:0.5;" x1="8" x2="274" y1="466" y2="466"/><rect fill="none" height="6" style="stroke:#C82930;stroke-width:1.0;" width="6" x="15" y="477.3047"/><text fill="#000000" font-family="sans-serif" font-size="14" lengthAdjust="spacing" textLength="29" x="27" y="484.5332">z: int</text><line style="stroke:#181818;stroke-width:0.5;" x1="8" x2="274" y1="491.6094" y2="491.6094"/><ellipse cx="18" cy="505.9141" fill="#84BE84" rx="3" ry="3" style="stroke:#038048;stroke-width:1.0;"/><text fill="#000000" font-family="sans-serif" font-size="14" lengthAdjust="spacing" textLength="242" x="27" y="510.1426">Punto3D(x: int, y: int, z: int, tiempo: int)</text><ellipse cx="18" cy="523.5234" fill="#84BE84" rx="3" ry="3" style="stroke:#038048;stroke-width:1.0;"/><text fill="#000000" font-family="sans-serif" font-size="14" lengthAdjust="spacing" textLength="107" x="27" y="527.752">modulo(): double</text></g><!--reverse link Punto to PuntoTiempo--><g id="link_Punto_PuntoTiempo"><path codeLine="39" d="M141,214.19 C141,234.52 141,237.45 141,255.93 " fill="none" id="Punto-backto-PuntoTiempo" style="stroke:#181818;stroke-width:1.0;"/><polygon fill="none" points="141,196.19,135,214.19,147,214.19,141,196.19" style="stroke:#181818;stroke-width:1.0;"/></g><!--reverse link PuntoTiempo to Punto3D--><g id="link_PuntoTiempo_Punto3D"><path codeLine="40" d="M141,392.11 C141,411.58 141,415.09 141,433.84 " fill="none" id="PuntoTiempo-backto-Punto3D" style="stroke:#181818;stroke-width:1.0;"/><polygon fill="none" points="141,374.11,135,392.11,147,392.11,141,374.11" style="stroke:#181818;stroke-width:1.0;"/></g><!--SRC=[Iyv9B2vM22ZDAybNgEPIKD1LgB1IoCmh0JChOKnjY0eDY9mEL48JB9EUMXAXeObG2UH78lEBGV8GZK3HilpC59Xmf4ObXd1kVaffJZv8Vqf-QL9EAbSj5rSomeqXcQcv1J2Nbe0vQ6w4g41pgGwoMhYpeKfHtGeLB45n6QeZZ5sW3gX2izlO1SFUAbpsO_Ce91fiQdHraVt2XUnpXAIn2m00]--></g></svg>